<mxfile host="app.diagrams.net" agent="Mozilla/5.0 (Windows NT 10.0; Win64; x64) AppleWebKit/537.36 (KHTML, like Gecko) Chrome/131.0.0.0 Safari/537.36" version="26.0.6" pages="2">
  <diagram name="Page-1" id="o7nLprG2shcyxYAwuzcC">
    <mxGraphModel dx="866" dy="1646" grid="1" gridSize="10" guides="1" tooltips="1" connect="1" arrows="1" fold="1" page="1" pageScale="1" pageWidth="2000" pageHeight="1200" math="0" shadow="0">
      <root>
        <mxCell id="0" />
        <mxCell id="1" parent="0" />
        <mxCell id="JbsnMYNn71Vhf2U4B6SM-2" value="" style="image;html=1;image=img/lib/clip_art/computers/Secure_System_128x128.png" vertex="1" parent="1">
          <mxGeometry x="430" y="-100" width="60" height="60" as="geometry" />
        </mxCell>
        <mxCell id="JbsnMYNn71Vhf2U4B6SM-3" value="" style="points=[];aspect=fixed;html=1;align=center;shadow=0;dashed=0;fillColor=#FF6A00;strokeColor=none;shape=mxgraph.alibaba_cloud.uis_ultimate_internet_service;" vertex="1" parent="1">
          <mxGeometry x="439.65999999999997" y="-290" width="40.67" height="40" as="geometry" />
        </mxCell>
        <mxCell id="JbsnMYNn71Vhf2U4B6SM-4" value="" style="points=[];aspect=fixed;html=1;align=center;shadow=0;dashed=0;fillColor=#FF6A00;strokeColor=none;shape=mxgraph.alibaba_cloud.user_feedback_02;" vertex="1" parent="1">
          <mxGeometry x="429.99999999999994" y="110" width="43.199999999999996" height="50.099999999999994" as="geometry" />
        </mxCell>
        <mxCell id="JbsnMYNn71Vhf2U4B6SM-6" value="" style="outlineConnect=0;dashed=0;verticalLabelPosition=bottom;verticalAlign=top;align=center;html=1;shape=mxgraph.aws3.user;fillColor=#D2D3D3;gradientColor=none;" vertex="1" parent="1">
          <mxGeometry x="230" y="-107.5" width="45" height="63" as="geometry" />
        </mxCell>
        <mxCell id="JbsnMYNn71Vhf2U4B6SM-7" value="" style="shape=cylinder3;whiteSpace=wrap;html=1;boundedLbl=1;backgroundOutline=1;size=15;" vertex="1" parent="1">
          <mxGeometry x="650" y="-103" width="50" height="58.5" as="geometry" />
        </mxCell>
        <mxCell id="JbsnMYNn71Vhf2U4B6SM-8" value="" style="endArrow=classic;html=1;rounded=0;" edge="1" parent="1">
          <mxGeometry width="50" height="50" relative="1" as="geometry">
            <mxPoint x="290" y="-76.5" as="sourcePoint" />
            <mxPoint x="420" y="-76.5" as="targetPoint" />
          </mxGeometry>
        </mxCell>
        <mxCell id="JbsnMYNn71Vhf2U4B6SM-9" value="" style="endArrow=classic;html=1;rounded=0;" edge="1" parent="1">
          <mxGeometry width="50" height="50" relative="1" as="geometry">
            <mxPoint x="420" y="-60" as="sourcePoint" />
            <mxPoint x="290" y="-60" as="targetPoint" />
          </mxGeometry>
        </mxCell>
        <mxCell id="JbsnMYNn71Vhf2U4B6SM-12" value="" style="endArrow=classic;html=1;rounded=0;" edge="1" parent="1">
          <mxGeometry width="50" height="50" relative="1" as="geometry">
            <mxPoint x="500" y="-78.75" as="sourcePoint" />
            <mxPoint x="630" y="-78.75" as="targetPoint" />
          </mxGeometry>
        </mxCell>
        <mxCell id="JbsnMYNn71Vhf2U4B6SM-13" value="" style="endArrow=classic;html=1;rounded=0;" edge="1" parent="1">
          <mxGeometry width="50" height="50" relative="1" as="geometry">
            <mxPoint x="630" y="-62.25" as="sourcePoint" />
            <mxPoint x="500" y="-62.25" as="targetPoint" />
          </mxGeometry>
        </mxCell>
        <mxCell id="JbsnMYNn71Vhf2U4B6SM-14" value="" style="endArrow=classic;html=1;rounded=0;" edge="1" parent="1">
          <mxGeometry width="50" height="50" relative="1" as="geometry">
            <mxPoint x="460" y="-30" as="sourcePoint" />
            <mxPoint x="460" y="100" as="targetPoint" />
          </mxGeometry>
        </mxCell>
        <mxCell id="JbsnMYNn71Vhf2U4B6SM-15" value="" style="endArrow=classic;html=1;rounded=0;" edge="1" parent="1">
          <mxGeometry width="50" height="50" relative="1" as="geometry">
            <mxPoint x="440" y="100" as="sourcePoint" />
            <mxPoint x="440" y="-30" as="targetPoint" />
          </mxGeometry>
        </mxCell>
        <mxCell id="JbsnMYNn71Vhf2U4B6SM-18" value="&lt;font style=&quot;vertical-align: inherit;&quot;&gt;&lt;font style=&quot;vertical-align: inherit;&quot;&gt;&lt;font style=&quot;vertical-align: inherit;&quot;&gt;&lt;font style=&quot;vertical-align: inherit;&quot;&gt;Internet&lt;/font&gt;&lt;/font&gt;&lt;/font&gt;&lt;/font&gt;" style="text;html=1;align=center;verticalAlign=middle;whiteSpace=wrap;rounded=0;" vertex="1" parent="1">
          <mxGeometry x="473.2" y="-180" width="60" height="30" as="geometry" />
        </mxCell>
        <mxCell id="JbsnMYNn71Vhf2U4B6SM-19" value="" style="endArrow=classic;startArrow=classic;html=1;rounded=0;" edge="1" parent="1">
          <mxGeometry width="50" height="50" relative="1" as="geometry">
            <mxPoint x="460" y="-110" as="sourcePoint" />
            <mxPoint x="460" y="-240" as="targetPoint" />
          </mxGeometry>
        </mxCell>
        <mxCell id="JbsnMYNn71Vhf2U4B6SM-21" value="&lt;font style=&quot;vertical-align: inherit;&quot;&gt;&lt;font style=&quot;vertical-align: inherit;&quot;&gt;&lt;font style=&quot;vertical-align: inherit;&quot;&gt;&lt;font style=&quot;vertical-align: inherit;&quot;&gt;&lt;font style=&quot;vertical-align: inherit;&quot;&gt;&lt;font style=&quot;vertical-align: inherit;&quot;&gt;Menyimpan data dan nilai&amp;nbsp;&lt;/font&gt;&lt;/font&gt;&lt;/font&gt;&lt;/font&gt;&lt;/font&gt;&lt;/font&gt;&lt;div&gt;karyawan&lt;/div&gt;" style="text;html=1;align=center;verticalAlign=middle;resizable=0;points=[];autosize=1;strokeColor=none;fillColor=none;" vertex="1" parent="1">
          <mxGeometry x="480.33" y="-120" width="160" height="40" as="geometry" />
        </mxCell>
        <mxCell id="JbsnMYNn71Vhf2U4B6SM-22" value="&lt;font style=&quot;vertical-align: inherit;&quot;&gt;&lt;font style=&quot;vertical-align: inherit;&quot;&gt;Menyediakan data&lt;/font&gt;&lt;/font&gt;" style="text;html=1;align=center;verticalAlign=middle;resizable=0;points=[];autosize=1;strokeColor=none;fillColor=none;" vertex="1" parent="1">
          <mxGeometry x="500.3299999999999" y="-60" width="120" height="30" as="geometry" />
        </mxCell>
        <mxCell id="JbsnMYNn71Vhf2U4B6SM-23" value="&lt;font style=&quot;vertical-align: inherit;&quot;&gt;&lt;font style=&quot;vertical-align: inherit;&quot;&gt;Manajer&lt;/font&gt;&lt;/font&gt;" style="text;html=1;align=center;verticalAlign=middle;whiteSpace=wrap;rounded=0;" vertex="1" parent="1">
          <mxGeometry x="222.5" y="-44.5" width="60" height="30" as="geometry" />
        </mxCell>
        <mxCell id="JbsnMYNn71Vhf2U4B6SM-24" value="&lt;font style=&quot;vertical-align: inherit;&quot;&gt;&lt;font style=&quot;vertical-align: inherit;&quot;&gt;HRD&lt;/font&gt;&lt;/font&gt;" style="text;html=1;align=center;verticalAlign=middle;whiteSpace=wrap;rounded=0;" vertex="1" parent="1">
          <mxGeometry x="421.6" y="160.1" width="60" height="30" as="geometry" />
        </mxCell>
        <mxCell id="JbsnMYNn71Vhf2U4B6SM-25" value="&lt;font style=&quot;vertical-align: inherit;&quot;&gt;&lt;font style=&quot;vertical-align: inherit;&quot;&gt;Database&lt;/font&gt;&lt;/font&gt;" style="text;html=1;align=center;verticalAlign=middle;whiteSpace=wrap;rounded=0;" vertex="1" parent="1">
          <mxGeometry x="650" y="-40" width="60" height="30" as="geometry" />
        </mxCell>
        <mxCell id="JbsnMYNn71Vhf2U4B6SM-26" value="1. Input username dan password&lt;div&gt;2. Input Nilai setiap karyawan&lt;/div&gt;" style="text;html=1;align=center;verticalAlign=middle;resizable=0;points=[];autosize=1;strokeColor=none;fillColor=none;" vertex="1" parent="1">
          <mxGeometry x="255" y="-120" width="200" height="40" as="geometry" />
        </mxCell>
        <mxCell id="JbsnMYNn71Vhf2U4B6SM-27" value="Memberikan data dan&amp;nbsp;&lt;div&gt;nilai karyawan&lt;/div&gt;" style="text;html=1;align=center;verticalAlign=middle;resizable=0;points=[];autosize=1;strokeColor=none;fillColor=none;" vertex="1" parent="1">
          <mxGeometry x="285" y="-50" width="140" height="40" as="geometry" />
        </mxCell>
        <mxCell id="JbsnMYNn71Vhf2U4B6SM-28" value="1. Input username dan password&lt;div&gt;2. Input Nilai setiap karyawan&lt;/div&gt;&lt;div&gt;3. Melihat, mengedit data dan status&lt;/div&gt;&lt;div&gt;&amp;nbsp;rekomendasi karyawan&lt;/div&gt;" style="text;html=1;align=left;verticalAlign=middle;resizable=0;points=[];autosize=1;strokeColor=none;fillColor=none;" vertex="1" parent="1">
          <mxGeometry x="229.66" y="5" width="220" height="70" as="geometry" />
        </mxCell>
        <mxCell id="JbsnMYNn71Vhf2U4B6SM-29" value="Memberikan data dan&amp;nbsp;&lt;div&gt;nilai karyawan&lt;/div&gt;" style="text;html=1;align=center;verticalAlign=middle;resizable=0;points=[];autosize=1;strokeColor=none;fillColor=none;" vertex="1" parent="1">
          <mxGeometry x="470" y="20" width="140" height="40" as="geometry" />
        </mxCell>
      </root>
    </mxGraphModel>
  </diagram>
  <diagram id="zjsEfHWoCbDJyxMruQlr" name="Page-2">
    <mxGraphModel dx="866" dy="446" grid="1" gridSize="10" guides="1" tooltips="1" connect="1" arrows="1" fold="1" page="1" pageScale="1" pageWidth="2000" pageHeight="1200" math="0" shadow="0">
      <root>
        <mxCell id="0" />
        <mxCell id="1" parent="0" />
        <mxCell id="CzITvgCMPahcXrRmvejX-1" value="" style="image;html=1;image=img/lib/clip_art/computers/Secure_System_128x128.png" vertex="1" parent="1">
          <mxGeometry x="467.5" y="450" width="60" height="60" as="geometry" />
        </mxCell>
        <mxCell id="CzITvgCMPahcXrRmvejX-2" value="" style="points=[];aspect=fixed;html=1;align=center;shadow=0;dashed=0;fillColor=#FF6A00;strokeColor=none;shape=mxgraph.alibaba_cloud.uis_ultimate_internet_service;" vertex="1" parent="1">
          <mxGeometry x="477.15999999999997" y="260" width="40.67" height="40" as="geometry" />
        </mxCell>
        <mxCell id="CzITvgCMPahcXrRmvejX-3" value="" style="points=[];aspect=fixed;html=1;align=center;shadow=0;dashed=0;fillColor=#FF6A00;strokeColor=none;shape=mxgraph.alibaba_cloud.user_feedback_02;" vertex="1" parent="1">
          <mxGeometry x="467.49999999999994" y="660" width="43.199999999999996" height="50.099999999999994" as="geometry" />
        </mxCell>
        <mxCell id="CzITvgCMPahcXrRmvejX-5" value="" style="shape=cylinder3;whiteSpace=wrap;html=1;boundedLbl=1;backgroundOutline=1;size=15;" vertex="1" parent="1">
          <mxGeometry x="687.5" y="447" width="50" height="58.5" as="geometry" />
        </mxCell>
        <mxCell id="CzITvgCMPahcXrRmvejX-8" value="" style="endArrow=classic;html=1;rounded=0;" edge="1" parent="1">
          <mxGeometry width="50" height="50" relative="1" as="geometry">
            <mxPoint x="537.5" y="471.25" as="sourcePoint" />
            <mxPoint x="667.5" y="471.25" as="targetPoint" />
          </mxGeometry>
        </mxCell>
        <mxCell id="CzITvgCMPahcXrRmvejX-9" value="" style="endArrow=classic;html=1;rounded=0;" edge="1" parent="1">
          <mxGeometry width="50" height="50" relative="1" as="geometry">
            <mxPoint x="667.5" y="487.75" as="sourcePoint" />
            <mxPoint x="537.5" y="487.75" as="targetPoint" />
          </mxGeometry>
        </mxCell>
        <mxCell id="CzITvgCMPahcXrRmvejX-10" value="" style="endArrow=classic;html=1;rounded=0;" edge="1" parent="1">
          <mxGeometry width="50" height="50" relative="1" as="geometry">
            <mxPoint x="497.5" y="520" as="sourcePoint" />
            <mxPoint x="497.5" y="650" as="targetPoint" />
          </mxGeometry>
        </mxCell>
        <mxCell id="CzITvgCMPahcXrRmvejX-11" value="" style="endArrow=classic;html=1;rounded=0;" edge="1" parent="1">
          <mxGeometry width="50" height="50" relative="1" as="geometry">
            <mxPoint x="477.5" y="650" as="sourcePoint" />
            <mxPoint x="477.5" y="520" as="targetPoint" />
          </mxGeometry>
        </mxCell>
        <mxCell id="CzITvgCMPahcXrRmvejX-12" value="&lt;font style=&quot;vertical-align: inherit;&quot;&gt;&lt;font style=&quot;vertical-align: inherit;&quot;&gt;&lt;font style=&quot;vertical-align: inherit;&quot;&gt;&lt;font style=&quot;vertical-align: inherit;&quot;&gt;Internet&lt;/font&gt;&lt;/font&gt;&lt;/font&gt;&lt;/font&gt;" style="text;html=1;align=center;verticalAlign=middle;whiteSpace=wrap;rounded=0;" vertex="1" parent="1">
          <mxGeometry x="510.7" y="370" width="60" height="30" as="geometry" />
        </mxCell>
        <mxCell id="CzITvgCMPahcXrRmvejX-13" value="" style="endArrow=classic;startArrow=classic;html=1;rounded=0;" edge="1" parent="1">
          <mxGeometry width="50" height="50" relative="1" as="geometry">
            <mxPoint x="497.5" y="440" as="sourcePoint" />
            <mxPoint x="497.5" y="310" as="targetPoint" />
          </mxGeometry>
        </mxCell>
        <mxCell id="CzITvgCMPahcXrRmvejX-14" value="&lt;font style=&quot;vertical-align: inherit;&quot;&gt;&lt;font style=&quot;vertical-align: inherit;&quot;&gt;&lt;font style=&quot;vertical-align: inherit;&quot;&gt;&lt;font style=&quot;vertical-align: inherit;&quot;&gt;&lt;font style=&quot;vertical-align: inherit;&quot;&gt;&lt;font style=&quot;vertical-align: inherit;&quot;&gt;Menyimpan data penjualan dan&amp;nbsp;&lt;/font&gt;&lt;/font&gt;&lt;/font&gt;&lt;/font&gt;&lt;/font&gt;&lt;/font&gt;&lt;div&gt;data customer&lt;/div&gt;" style="text;html=1;align=center;verticalAlign=middle;resizable=0;points=[];autosize=1;strokeColor=none;fillColor=none;" vertex="1" parent="1">
          <mxGeometry x="502.8299999999999" y="430" width="190" height="40" as="geometry" />
        </mxCell>
        <mxCell id="CzITvgCMPahcXrRmvejX-15" value="&lt;font style=&quot;vertical-align: inherit;&quot;&gt;&lt;font style=&quot;vertical-align: inherit;&quot;&gt;Menyediakan data&lt;/font&gt;&lt;/font&gt;" style="text;html=1;align=center;verticalAlign=middle;resizable=0;points=[];autosize=1;strokeColor=none;fillColor=none;" vertex="1" parent="1">
          <mxGeometry x="537.8299999999999" y="490" width="120" height="30" as="geometry" />
        </mxCell>
        <mxCell id="CzITvgCMPahcXrRmvejX-17" value="&lt;font style=&quot;vertical-align: inherit;&quot;&gt;&lt;font style=&quot;vertical-align: inherit;&quot;&gt;Manajer&lt;/font&gt;&lt;/font&gt;" style="text;html=1;align=center;verticalAlign=middle;whiteSpace=wrap;rounded=0;" vertex="1" parent="1">
          <mxGeometry x="459.1" y="710.1" width="60" height="30" as="geometry" />
        </mxCell>
        <mxCell id="CzITvgCMPahcXrRmvejX-18" value="&lt;font style=&quot;vertical-align: inherit;&quot;&gt;&lt;font style=&quot;vertical-align: inherit;&quot;&gt;Database&lt;/font&gt;&lt;/font&gt;" style="text;html=1;align=center;verticalAlign=middle;whiteSpace=wrap;rounded=0;" vertex="1" parent="1">
          <mxGeometry x="687.5" y="510" width="60" height="30" as="geometry" />
        </mxCell>
        <mxCell id="CzITvgCMPahcXrRmvejX-21" value="1. Input username dan password&lt;div&gt;2. Input jumlah pembelian setiap customer&amp;nbsp;&lt;/div&gt;&lt;div&gt;&lt;span style=&quot;background-color: transparent; color: light-dark(rgb(0, 0, 0), rgb(255, 255, 255));&quot;&gt;3. Melihat, mengedit data dan pemberian reward&lt;/span&gt;&lt;/div&gt;" style="text;html=1;align=left;verticalAlign=middle;resizable=0;points=[];autosize=1;strokeColor=none;fillColor=none;" vertex="1" parent="1">
          <mxGeometry x="227.15999999999997" y="560" width="280" height="60" as="geometry" />
        </mxCell>
        <mxCell id="CzITvgCMPahcXrRmvejX-22" value="Menampilkan data pemberian&amp;nbsp;&lt;div&gt;reward&lt;/div&gt;" style="text;html=1;align=center;verticalAlign=middle;resizable=0;points=[];autosize=1;strokeColor=none;fillColor=none;" vertex="1" parent="1">
          <mxGeometry x="502.83" y="570" width="180" height="40" as="geometry" />
        </mxCell>
      </root>
    </mxGraphModel>
  </diagram>
</mxfile>
